# xmcd CD database file
#
# Track frame offsets:
#	150
#	18635
#	37121
#
# Disc length: 738 seconds
#
# Revision: 2
# Processed by: cddbd v1.5.2PL0 Copyright (c) Steve Scherf et al.
# Submitted via: CDex 1.70beta2
#
DISCID=2102e003
DTITLE=Kim Bum Soo - 逢いたい 〜ポゴシプタ〜
DYEAR=2005
DGENRE=JPop
TTITLE0=逢いたい 〜ポゴシプタ〜　日本語バージョン
TTITLE1=ポゴシプタ　〜逢いたい〜 　韓国語バージョン
TTITLE2=逢いたい 〜ポゴシプタ〜　（カラオケ）
EXTD=YEAR: 2005
EXTT0=
EXTT1=
EXTT2=
PLAYORDER=
